<?xml version="1.0" encoding="UTF-8"?>
<svg version="1.1" xmlns="http://www.w3.org/2000/svg" width="1681" height="1518">
<path d="M0 0 C1.44796952 -0.00134778 2.8959383 -0.00413847 4.34390259 -0.008255 C8.22872433 -0.01290788 12.11289641 0.01006063 15.99758148 0.04090881 C18.4383539 0.05871396 20.87906462 0.06950287 23.31988525 0.07824707 C55.99486552 0.20375858 88.56073648 1.40976333 121.171875 3.49609375 C122.88449524 3.60500946 122.88449524 3.60500946 124.63171387 3.71612549 C204.64723041 8.86543905 284.54299823 20.17927081 362.171875 40.49609375 C362.90887634 40.6881842 363.64587769 40.88027466 364.4052124 41.07818604 C387.99443728 47.23931701 411.16254045 54.44083047 434.171875 62.49609375 C434.85032471 62.73348267 435.52877441 62.97087158 436.2277832 63.2154541 C454.50027394 69.62598103 472.44015345 76.70906948 490.171875 84.49609375 C491.56019531 85.10348389 491.56019531 85.10348389 492.9765625 85.72314453 C530.9820432 102.40562274 568.61198453 122.66481543 601.44921875 148.17041016 C604.03164253 150.15773458 606.6686846 152.06990684 609.296875 153.99609375 C614.41105136 157.82477741 619.25519993 161.9111479 624.07128906 166.10302734 C628.42155213 169.88602392 632.89007851 173.47749 637.4765625 176.97265625 C638.03601563 177.47539063 638.59546875 177.978125 639.171875 178.49609375 C639.171875 179.15609375 639.171875 179.81609375 639.171875 180.49609375 C639.75670654 180.75567871 640.34153809 181.01526367 640.9440918 181.28271484 C643.33057854 182.58253283 644.90489711 183.98566097 646.81640625 185.91015625 C647.49380859 186.58949219 648.17121094 187.26882813 648.86914062 187.96875 C649.56716797 188.67902344 650.26519531 189.38929688 650.984375 190.12109375 C651.67080078 190.80816406 652.35722656 191.49523437 653.06445312 192.203125 C657.63052801 196.80807848 661.94675563 201.57855484 666.171875 206.49609375 C667.06044666 207.50586991 667.94971073 208.51503743 668.83984375 209.5234375 C709.32472346 256.28504274 728.92541829 316.57504326 735.859375 377.24609375 C735.97885498 378.28556152 736.09833496 379.3250293 736.22143555 380.39599609 C737.92452402 396.29231064 738.41015139 412.26761248 738.421875 428.24609375 C738.42288712 429.51968246 738.42288712 429.51968246 738.42391968 430.81900024 C738.31070034 522.26107578 714.61972113 613.27595502 614.22906494 859.35241699 C613.17168622 861.49647655 612.1158575 863.64129496 611.06005859 865.78613281 C603.24439489 881.64736941 595.23573594 897.36150026 586.64599609 912.82128906 C585.08843996 915.64748731 583.55866243 918.48734127 582.03515625 921.33203125 C576.04088694 932.52006187 569.86996607 943.57315862 563.43359375 954.51318359 C557.20902526 965.09669851 551.18094406 975.78913511 545.171875 986.49609375 C538.8864772 985.85009453 533.16543637 984.07704784 527.171875 982.12109375 C525.54620605 981.59370605 525.54620605 981.59370605 523.88769531 981.05566406 C499.88662652 973.19570465 476.36416987 964.51589729 453.171875 954.49609375 C451.98384277 953.98320801 450.79581055 953.47032227 449.57177734 952.94189453 C423.99485117 941.83097588 398.84402014 929.61507481 374.57617188 915.85888672 C372.84276448 914.87636437 371.09771241 913.91428661 369.34570312 912.96533203 C368.42724609 912.45083496 367.50878906 911.93633789 366.5625 911.40625 C365.72235352 910.94484619 364.88220703 910.48344238 364.01660156 910.00805664 C363.4078418 909.50910889 362.79908203 909.01016113 362.171875 908.49609375 C362.171875 904.29195968 362.60916349 903.27379279 364.69921875 899.8203125 C365.2391748 898.91829102 365.77913086 898.01626953 366.33544922 897.08691406 C366.92084473 896.12881836 367.50624023 895.17072266 368.109375 894.18359375 C368.70766113 893.18811523 369.30594727 892.19263672 369.92236328 891.16699219 C371.66412055 888.27171297 373.41642182 885.38308345 375.171875 882.49609375 C392.25398398 854.2691525 408.03305152 825.46930147 423.21484375 796.18359375 C425.24023097 792.27753813 427.28682323 788.38355998 429.34765625 784.49609375 C436.8618735 770.27235089 443.77296114 755.83953455 450.45336914 741.20947266 C452.06136894 737.71351067 453.72014692 734.24272315 455.38056946 730.77142334 C460.4118749 720.24032631 465.1493809 709.6034006 469.734375 698.87109375 C470.11694458 697.97690735 470.49951416 697.08272095 470.89367676 696.16143799 C497.79865164 633.15182092 521.40454565 567.89258825 533.734375 500.30859375 C533.85688629 499.64234985 533.97939758 498.97610596 534.10562134 498.28967285 C537.8885478 483.17256632 537.8885478 483.17256632 535.359375 468.74609375 C532.56584398 465.87274756 531.71949518 465.5688631 527.703125 465.03515625 C521.71436304 465.12417839 517.45995532 468.59839326 512.671875 471.87109375 C510.710043 473.16728377 508.7478009 474.4628533 506.78515625 475.7578125 C505.82818848 476.3976709 504.8712207 477.0375293 503.88525391 477.69677734 C500.25645618 480.10313322 496.56621053 482.40014921 492.859375 484.68359375 C487.48789205 488.0217958 482.16265845 491.42566788 476.859375 494.87109375 C464.71115308 502.76133336 452.44352778 510.45920785 440.15136719 518.12280273 C431.49674353 523.51935125 422.86845152 528.94657543 414.32055664 534.51074219 C408.44977884 538.32911131 402.53372186 542.07279332 396.6081543 545.80541992 C390.45136962 549.6845861 384.30896611 553.58585327 378.171875 557.49609375 C371.4108238 561.80343358 364.64164761 566.09725341 357.859375 570.37109375 C349.43286299 575.68340167 341.04206996 581.05072621 332.65454102 586.42431641 C317.99445759 595.81563502 303.3050982 605.16025102 288.58056641 614.45019531 C284.60606649 616.95782491 280.63462652 619.46991575 276.671875 621.99609375 C271.91022776 625.03155244 267.13520464 628.04552711 262.359375 631.05859375 C252.48803704 637.28774155 242.64024477 643.55364418 232.7956543 649.82495117 C228.25532156 652.71678867 223.71350725 655.60629776 219.171875 658.49609375 C217.46744126 659.58071871 215.76301408 660.66535398 214.05859375 661.75 C211.37528484 663.45758351 208.69194954 665.16512549 206.00854492 666.87255859 C201.17954655 669.94530222 196.35096872 673.01870179 191.5234375 676.09375 C186.95829286 679.00142927 182.39161833 681.90669082 177.82373047 684.81005859 C176.06711971 685.92690208 174.31092904 687.0444066 172.55517578 688.16259766 C142.05595643 707.58068538 142.05595643 707.58068538 133.171875 706.49609375 C122.55062698 703.45558174 116.42211007 692.72419177 110.39550781 684.21289062 C108.99738307 682.25127587 107.58178879 680.302963 106.1640625 678.35546875 C79.56072821 641.78635236 56.01686437 603.42609042 35.12207031 563.31921387 C34.48482542 562.09654525 33.84613585 560.87462857 33.20605469 559.65344238 C31.00690201 555.45458087 28.86026794 551.23254086 26.734375 546.99609375 C26.17242432 545.91763184 25.61047363 544.83916992 25.03149414 543.72802734 C21.26983737 536.07855162 19.19321987 528.76123864 21.84692383 520.35864258 C24.14369882 515.75081148 27.67788354 513.28183206 31.921875 510.68359375 C32.57728271 510.264729 33.23269043 509.84586426 33.90795898 509.41430664 C35.98614317 508.09191549 38.07759327 506.79280845 40.171875 505.49609375 C41.52267752 504.64799823 42.87294462 503.79904931 44.22265625 502.94921875 C46.90780517 501.26274647 49.59845209 499.58552216 52.29296875 497.9140625 C56.38046225 495.37384072 60.42849446 492.77439294 64.47216797 490.16503906 C76.82389914 482.20038486 89.24178538 474.33774516 101.671875 466.49609375 C115.41741839 457.82387664 129.12501277 449.09241662 142.80810547 440.32202148 C151.36597218 434.83675534 159.9325255 429.37083035 168.56665039 424.00634766 C173.96010057 420.64769593 179.290841 417.19628802 184.6184082 413.734375 C190.62812698 409.83455975 196.67882689 406.00242964 202.74023438 402.18359375 C208.831679 398.34514919 214.91115647 394.48830891 220.984375 390.62109375 C221.90307373 390.03610107 222.82177246 389.4511084 223.76831055 388.84838867 C225.63677171 387.65844905 227.50517975 386.46842598 229.37353516 385.27832031 C233.97211262 382.34954562 238.57205527 379.42291684 243.171875 376.49609375 C245.00521504 375.32943762 246.83854837 374.16277095 248.671875 372.99609375 C252.33854167 370.66276042 256.00520833 368.32942708 259.671875 365.99609375 C260.5796167 365.41843262 261.4873584 364.84077148 262.42260742 364.24560547 C264.25347253 363.08052427 266.0843644 361.91548511 267.9152832 360.75048828 C272.53660213 357.80991054 277.1574342 354.86857283 281.77734375 351.92578125 C295.06307738 343.4643724 308.37108428 335.03898331 321.69921875 326.64453125 C331.72265335 320.32769039 341.71235085 313.95964747 351.68847656 307.56835938 C358.63528749 303.11815805 365.58733034 298.67635516 372.546875 294.24609375 C373.43576416 293.67930908 374.32465332 293.11252441 375.24047852 292.52856445 C379.71052095 289.68197639 384.19197659 286.85616236 388.6953125 284.0625 C389.57525879 283.51432617 390.45520508 282.96615234 391.36181641 282.40136719 C393.02482963 281.36670208 394.69100999 280.33710399 396.36083984 279.31347656 C397.0977002 278.85424805 397.83456055 278.39501953 398.59375 277.921875 C399.23924805 277.52395752 399.88474609 277.12604004 400.54980469 276.71606445 C402.46448865 275.41635178 402.46448865 275.41635178 404.171875 272.49609375 C404.44972932 270.54229876 404.44972932 270.54229876 404.359375 268.49609375 C404.35292969 267.81546875 404.34648437 267.13484375 404.33984375 266.43359375 C404.22885246 264.27851166 404.22885246 264.27851166 403.171875 261.49609375 C401.3603117 260.56746193 401.3603117 260.56746193 399.13427734 259.98486328 C398.31755554 259.73673889 397.50083374 259.4886145 396.65936279 259.23297119 C395.83849182 258.98980164 395.01762085 258.74663208 394.171875 258.49609375 C392.7903176 258.03887364 391.41080432 257.57541761 390.03369141 257.10498047 C367.35692318 249.4865813 344.67254263 242.55909364 321.39562988 237.02679443 C319.1563944 236.49239929 316.91935712 235.94952334 314.68261719 235.40478516 C269.4543573 224.43096078 223.37554716 216.93089592 177.171875 211.49609375 C176.36820496 211.40110596 175.56453491 211.30611816 174.73651123 211.20825195 C162.89616818 209.81587633 151.04252086 208.59895757 139.171875 207.49609375 C137.84074677 207.37201141 137.84074677 207.37201141 136.48272705 207.24542236 C94.98708767 203.40247195 53.37262545 200.68075304 11.6953125 200.1953125 C10.87354837 200.18550165 10.05178425 200.1756908 9.20511818 200.16558266 C1.07271973 200.0705155 -7.05932506 199.99425588 -15.19226456 199.97055531 C-18.20745779 199.95968633 -21.22251846 199.93791529 -24.23763657 199.91439247 C-25.63967769 199.90647443 -27.04176139 199.90393046 -28.44382095 199.90724754 C-45.05745696 199.94585306 -45.05745696 199.94585306 -50.33757019 195.1151123 C-54.96803121 189.83711215 -56.13633536 185.79252906 -56.12890625 178.90234375 C-56.1344603 178.14024094 -56.14001434 177.37813812 -56.14573669 176.59294128 C-56.15769136 174.06047262 -56.15112351 171.52856446 -56.140625 168.99609375 C-56.13913452 168.11829254 -56.13764404 167.24049133 -56.1361084 166.33609009 C-56.01540241 126.31349772 -51.89103555 86.44944324 -45.765625 46.93359375 C-45.64174408 46.12545227 -45.51786316 45.31731079 -45.39022827 44.48468018 C-43.00726283 29.06921173 -40.8417324 16.44833785 -28.16790771 6.14186096 C-19.60847752 0.12128927 -10.10797378 -0.088392 0 0 Z " fill="#D5D60A" transform="translate(55.828125,531.50390625)"/>
<path d="M0 0 C2.43229274 -0.01333692 4.86444073 -0.03353388 7.29666901 -0.05555725 C11.15683879 -0.08906489 15.01652909 -0.10099303 18.87683678 -0.09708786 C20.30688994 -0.09859161 21.73695475 -0.10671766 23.16692543 -0.12215042 C35.16548684 -0.24210307 44.88811713 1.51790147 54.26023102 9.38108826 C64.58533831 19.58543406 66.11194082 33.04982726 68.20163727 46.73655701 C68.33042267 47.56602844 68.45920807 48.39549988 68.59189606 49.25010681 C72.65704319 75.49493735 75.58224362 101.85454641 77.26413727 128.36155701 C77.35090729 129.62806091 77.35090729 129.62806091 77.43943024 130.92015076 C78.22035525 142.50657534 78.43668221 154.11812406 78.54923248 165.72807312 C78.56733192 167.34351823 78.59198574 168.95890479 78.6235733 170.57414246 C78.92257284 186.7752076 78.92257284 186.7752076 74.26413727 193.36155701 C72.48288727 195.20140076 72.48288727 195.20140076 70.76413727 196.29905701 C70.19694977 196.67933044 69.62976227 197.05960388 69.04538727 197.45140076 C65.16220081 199.43557278 61.4482823 199.4936317 57.13694 199.51927185 C55.88386551 199.52967499 54.63079102 199.54007813 53.33974457 199.55079651 C52.66747519 199.55425205 51.9952058 199.5577076 51.30256462 199.56126785 C48.40529901 199.57672114 45.508179 199.60411492 42.6109972 199.63066673 C41.06064205 199.6447806 39.51028206 199.658371 37.95991802 199.67147255 C-66.55919534 200.55783552 -170.92047074 209.38705402 -361.67336273 254.73655701 C-362.45197662 254.9894046 -363.23059052 255.2422522 -364.03279877 255.50276184 C-366.23877245 256.22244057 -368.43909176 256.95715722 -370.63820648 257.69749451 C-371.28550217 257.90758652 -371.93279785 258.11767853 -372.59970856 258.33413696 C-376.63701838 259.72113032 -379.6218371 261.43768716 -382.73586273 264.36155701 C-383.8687898 267.30716739 -383.90455673 268.78696634 -383.01686859 271.81053162 C-381.50244606 274.8263885 -380.10666067 275.89752918 -377.30226898 277.74046326 C-375.95286224 278.63595886 -375.95286224 278.63595886 -374.57619476 279.54954529 C-373.17023041 280.44649109 -373.17023041 280.44649109 -371.73586273 281.36155701 C-370.85656097 281.92471619 -369.97725922 282.48787537 -369.07131195 283.06809998 C-366.28314043 284.83030556 -363.48042016 286.56710774 -360.67336273 288.29905701 C-352.113528 293.61442749 -343.59132109 298.98290297 -335.11086273 304.42405701 C-334.07139496 305.09090515 -333.03192719 305.7577533 -331.96096039 306.44480896 C-329.88994667 307.77358818 -327.81898244 309.10244454 -325.74806976 310.43138123 C-318.32832895 315.18583664 -310.88755281 319.90736216 -303.45070648 324.63499451 C-300.68041324 326.39682129 -297.91112048 328.16021063 -295.14211273 329.92405701 C-286.51609191 335.41819417 -277.88580003 340.90513512 -269.23586273 346.36155701 C-259.65156992 352.40737483 -250.09175667 358.49135635 -240.53420258 364.57933044 C-235.93562513 367.50810512 -231.33569935 370.43476048 -226.73586273 373.36155701 C-221.20002015 376.88391794 -215.66448736 380.4067608 -210.13039398 383.93186951 C-201.50812 389.42315015 -192.88182942 394.9076398 -184.23586273 400.36155701 C-174.65156992 406.40737483 -165.09175667 412.49135635 -155.53420258 418.57933044 C-150.93562513 421.50810512 -146.33569935 424.43476048 -141.73586273 427.36155701 C-136.20002015 430.88391794 -130.66448736 434.4067608 -125.13039398 437.93186951 C-123.26974291 439.11680618 -121.40906593 440.30170218 -119.54836273 441.48655701 C-118.17442352 442.36162903 -118.17442352 442.36162903 -116.77272797 443.25437927 C-112.50098164 445.97317853 -108.22588851 448.68623659 -103.93898773 451.38108826 C-95.29581055 456.81500357 -86.71064951 462.32491366 -78.17336273 467.92405701 C-70.76621583 472.77880294 -63.30666928 477.51002403 -55.72609711 482.08836365 C-45.92418871 488.02940924 -36.3120355 494.26991508 -26.67824554 500.47825623 C-23.98794661 502.20020827 -21.28442973 503.89773944 -18.57180023 505.58421326 C-17.79908783 506.06954529 -17.02637543 506.55487732 -16.2302475 507.05491638 C-14.83795729 507.92858355 -13.44047008 508.79405938 -12.03639984 509.64866638 C-6.36810393 513.23314938 -1.95090742 517.50884339 0.70163727 523.73655701 C2.23825822 533.63922537 -1.45020682 540.89527099 -5.79836273 549.54905701 C-6.42929425 550.82608281 -7.05973628 552.10335055 -7.68972015 553.38084412 C-9.6766816 557.38900726 -11.70033943 561.37787297 -13.73586273 565.36155701 C-14.06062592 565.99799133 -14.3853891 566.63442566 -14.71999359 567.29014587 C-24.54879268 586.50906872 -35.28861785 605.0653673 -46.73586273 623.36155701 C-47.36266937 624.36718689 -47.98947601 625.37281677 -48.63527679 626.40892029 C-62.7917457 649.07364643 -77.94885696 671.0481999 -94.23586273 692.23655701 C-94.81134857 692.9920282 -95.38683441 693.74749939 -95.97975922 694.52586365 C-100.37593608 700.18620769 -104.91927517 705.45192282 -112.25930023 706.83811951 C-121.79260944 707.33437396 -128.06752588 703.41407772 -135.73586273 698.36155701 C-137.06817414 697.50709689 -138.40153537 696.65427182 -139.73586273 695.80296326 C-142.58951319 693.97404496 -145.43146823 692.12841537 -148.26711273 690.27171326 C-152.78929952 687.31619795 -157.35130784 684.42664732 -161.92336273 681.54905701 C-168.87287776 677.17192752 -175.80922394 672.77480334 -182.73586273 668.36155701 C-189.56043053 664.01422601 -196.39179707 659.67812818 -203.23586273 655.36155701 C-212.82020421 649.31581686 -222.37996924 643.23175739 -231.93752289 637.14378357 C-236.53610035 634.21500888 -241.136043 631.2883801 -245.73586273 628.36155701 C-247.56920277 627.19490087 -249.4025361 626.0282342 -251.23586273 624.86155701 C-252.14336273 624.28405701 -253.05086273 623.70655701 -253.98586273 623.11155701 C-262.23586272 617.86155702 -262.23586272 617.86155702 -264.98659515 616.11106873 C-266.81746027 614.94598753 -268.64835214 613.78094837 -270.47927094 612.61595154 C-275.10058986 609.67537379 -279.72142193 606.73403608 -284.34133148 603.79124451 C-292.96360547 598.29996387 -301.58989605 592.81547422 -310.23586273 587.36155701 C-319.82015554 581.31573918 -329.3799688 575.23175767 -338.93752289 569.14378357 C-343.53610035 566.21500888 -348.136043 563.2883801 -352.73586273 560.36155701 C-354.56920277 559.19490087 -356.4025361 558.0282342 -358.23586273 556.86155701 C-359.14336273 556.28405701 -360.05086273 555.70655701 -360.98586273 555.11155701 C-374.86476898 546.27952576 -388.74367523 537.44749451 -402.62258148 528.61546326 C-403.87591278 527.81797668 -403.87591278 527.81797668 -405.1545639 527.00437927 C-406.94139745 525.86718047 -408.72800347 524.72962412 -410.51442719 523.59178162 C-416.18427257 519.98119496 -421.86215198 516.38380107 -427.54836273 512.79905701 C-439.23631165 505.42349748 -450.89106083 497.99593238 -462.54738617 490.57054138 C-472.51961209 484.21858404 -482.494623 477.87107867 -492.48586273 471.54905701 C-493.29047943 471.03907166 -494.09509613 470.5290863 -494.92409515 470.00364685 C-496.02974823 469.30489441 -496.02974823 469.30489441 -497.15773773 468.59202576 C-497.80323578 468.18363464 -498.44873383 467.77524353 -499.11379242 467.35447693 C-502.51171094 465.27450483 -504.727627 465.04718558 -508.73586273 465.36155701 C-512.44743147 467.12629256 -512.44743147 467.12629256 -514.73586273 470.36155701 C-515.68167873 479.86735639 -513.62460247 489.25781449 -511.86086273 498.54905701 C-511.62994934 499.7816626 -511.62994934 499.7816626 -511.39437103 501.03916931 C-494.76566612 589.25646696 -460.34550687 673.63090848 -409.64272308 778.51139832 C-408.82719588 780.17522092 -408.01335627 781.83987045 -407.19972992 783.50462341 C-401.73094022 794.67816583 -395.93460185 805.63825399 -389.93117523 816.53343201 C-387.70910907 820.57030019 -385.52005407 824.62299176 -383.35305023 828.68968201 C-376.95174096 840.69719623 -370.40216598 852.57710859 -363.44142914 864.27122498 C-356.11979297 876.62010969 -349.53336852 887.90057601 -352.91945648 902.70140076 C-356.83101759 915.44672666 -364.39564487 922.54260183 -375.88527679 928.81297302 C-378.15867427 930.01670006 -380.44325169 931.19484953 -382.73586273 932.36155701 C-383.51187836 932.75649353 -384.28789398 933.15143005 -385.08742523 933.55833435 C-419.38585692 950.79715623 -455.19365611 965.19755429 -491.47414398 977.64671326 C-492.82052948 978.10896301 -492.82052948 978.10896301 -494.19411469 978.58055115 C-505.13011249 981.94086783 -515.15043088 980.37183958 -525.25539398 975.02952576 C-532.40564023 970.0832083 -536.47640292 962.73542607 -540.73586273 955.36155701 C-541.21539398 954.53559021 -541.69492523 953.70962341 -542.18898773 952.85862732 C-555.13405632 930.45810143 -567.20802474 907.59132421 -579.03726959 884.58781433 C-580.98222932 880.81044331 -582.94826924 877.04491403 -584.93117523 873.28733826 C-592.22023371 859.47364338 -599.08406406 845.49267103 -605.73586273 831.36155701 C-606.25261566 830.26746521 -606.76936859 829.17337341 -607.3017807 828.04612732 C-636.53152572 766.05999523 -662.20761771 702.09095494 -681.73586273 636.36155701 C-681.95586945 635.62352844 -682.17587616 634.88549988 -682.40254974 634.12510681 C-698.86862286 578.79569426 -710.58842789 522.00751107 -714.73586273 464.36155701 C-714.79370941 463.63372009 -714.85155609 462.90588318 -714.9111557 462.1559906 C-721.31324815 380.63854644 -708.24566619 285.97557691 -655.73586273 220.36155701 C-655.01785492 219.45147888 -654.29984711 218.54140076 -653.56008148 217.60374451 C-648.7162668 211.56403242 -643.59282452 205.84277483 -638.31398773 200.18577576 C-636.51976062 198.22028151 -634.81370834 196.26212091 -633.13430023 194.20530701 C-631.20433671 191.91701149 -629.4071499 190.06065417 -627.11086273 188.17405701 C-623.69611217 185.27183936 -620.55626317 182.19096445 -617.42336273 178.98655701 C-612.18461378 173.67021032 -606.58562626 168.98784058 -600.73586273 164.36155701 C-599.6030406 163.43998999 -598.47159494 162.51672909 -597.34133148 161.59202576 C-545.76122981 119.55190501 -485.06312291 88.93481019 -422.73586273 66.36155701 C-421.46522878 65.89705815 -420.19472624 65.43219973 -418.92433929 64.96702576 C-339.3372094 35.87330153 -255.6618568 19.60813929 -85.05776215 2.56010437 C-81.98375042 2.37637306 -78.91009518 2.18750985 -75.83644867 1.99778748 C-50.57426739 0.46659033 -25.30219004 0.11388104 0 0 Z " fill="#D5D60A" transform="translate(1602.7358627319336,531.6384429931641)"/>
<path d="M0 0 C7.63738187 3.92304855 14.703988 8.40998159 21.75048828 13.30810547 C22.7965625 14.02482422 23.84263672 14.74154297 24.92041016 15.47998047 C31.76050491 20.18440318 38.49519585 25.02207442 45.18798828 29.93310547 C45.98487061 30.51447266 46.78175293 31.09583984 47.6027832 31.69482422 C61.46997321 41.81290423 75.0431893 52.15488237 88.09423828 63.30810547 C90.98350149 65.77226511 93.92317286 68.16971547 96.87548828 70.55810547 C101.32562144 74.18030688 105.6113218 77.9472236 109.84814453 81.81591797 C111.96845104 83.73445908 114.13025034 85.58650066 116.31298828 87.43310547 C125.30953395 95.35516492 132.36301803 104.00173289 133.39111328 116.37841797 C133.40658203 117.26271484 133.42205078 118.14701172 133.43798828 119.05810547 C133.46376953 119.92693359 133.48955078 120.79576172 133.51611328 121.69091797 C132.71404749 129.61609184 129.65219531 136.63070296 125.87548828 143.55810547 C125.44453857 144.3623999 125.01358887 145.16669434 124.56958008 145.99536133 C119.88011633 154.65822065 114.88768743 163.14657931 109.88720703 171.63232422 C106.77393838 176.91771737 103.71716219 182.23350731 100.67285156 187.55883789 C74.57900558 233.14599937 45.46809363 277.03549179 15.18798828 319.93310547 C14.74148926 320.56619629 14.29499023 321.19928711 13.83496094 321.8515625 C2.54320623 337.83610883 -9.15282618 353.49832564 -21.22509766 368.90087891 C-23.564764 371.89709162 -25.8762254 374.9146042 -28.18701172 377.93310547 C-32.32727316 383.32287485 -36.53358393 388.65244755 -40.81201172 393.93310547 C-41.50810547 394.79291016 -42.20419922 395.65271484 -42.92138672 396.53857422 C-48.33155829 403.18617865 -53.85023859 409.73659641 -59.40039062 416.26708984 C-60.80720526 417.92743281 -62.20709228 419.59336807 -63.60498047 421.26123047 C-68.80087198 427.45225491 -74.09467298 433.51398812 -79.56201172 439.46826172 C-81.42967875 441.51426501 -83.25570769 443.58327703 -85.06201172 445.68310547 C-88.5571952 449.70256647 -92.18146563 453.59880665 -95.81201172 457.49560547 C-96.39370117 458.12112305 -96.97539063 458.74664062 -97.57470703 459.39111328 C-100.43489334 462.45066053 -103.32754842 465.45928544 -106.31201172 468.39794922 C-108.70774055 470.77273579 -110.96129749 473.2146135 -113.15966797 475.77294922 C-117.30214796 480.56944418 -121.75918743 485.02668066 -126.24951172 489.49560547 C-127.05710937 490.30707031 -127.86470703 491.11853516 -128.69677734 491.95458984 C-133.02329408 496.27413396 -137.43249667 500.41682647 -142.06762695 504.40258789 C-144.37382761 506.42604092 -146.49901977 508.59699826 -148.62451172 510.80810547 C-152.84224569 515.07735375 -157.28532994 518.85299407 -161.97216797 522.59326172 C-164.9633653 525.05781082 -167.79923033 527.65844338 -170.62451172 530.30810547 C-176.46602111 535.75372514 -182.6670198 540.636885 -188.98681641 545.51074219 C-191.47373219 547.44878009 -193.92248219 549.43234732 -196.37304688 551.41601562 C-270.33157004 611.21022106 -360.93724366 654.90617436 -471.65258789 651.21044922 C-521.55878477 645.50360406 -571.68212681 626.95544096 -614.99462891 601.97314453 C-617.38937679 600.60269504 -619.81691411 599.29745434 -622.24951172 597.99560547 C-624.10648956 596.97989486 -625.96027802 595.95834546 -627.81201172 594.93310547 C-628.44558594 594.5826416 -629.07916016 594.23217773 -629.73193359 593.87109375 C-648.89738504 583.20162182 -667.17273725 570.96304517 -684.81201172 557.93310547 C-685.43978516 557.46984863 -686.06755859 557.0065918 -686.71435547 556.52929688 C-710.16126505 539.17835526 -733.1137659 520.99081552 -754.43920898 501.07055664 C-756.48761684 499.15961141 -758.54720006 497.26520556 -760.62084961 495.38134766 C-769.75209182 487.07256757 -778.4989509 478.39911221 -787.21630859 469.65917969 C-789.70019621 467.16989232 -792.18943855 464.68604845 -794.67919922 462.20263672 C-796.2836869 460.59748878 -797.88786464 458.99203097 -799.49169922 457.38623047 C-800.22411835 456.65583557 -800.95653748 455.92544067 -801.71115112 455.1729126 C-805.71123146 451.15477516 -809.54689034 447.04897558 -813.23834229 442.74488831 C-815.95795269 439.6137711 -818.83447578 436.63010296 -821.68701172 433.62060547 C-826.5805102 428.42207116 -831.22311292 423.11320193 -835.67919922 417.53076172 C-837.92330447 414.79755661 -840.28068924 412.21173954 -842.68701172 409.62060547 C-846.90966028 405.03303666 -850.76372196 400.25924489 -854.56982422 395.32958984 C-857.81758151 391.14288596 -861.2029379 387.11184738 -864.68701172 383.12060547 C-870.79584645 376.0866679 -876.42587887 368.73098522 -882.02880859 361.29150391 C-883.91944238 358.79102166 -885.82491882 356.30242796 -887.73388672 353.81591797 C-896.29203211 342.66005833 -904.67089186 331.39678979 -912.81201172 319.93310547 C-913.21877136 319.36352112 -913.62553101 318.79393677 -914.0446167 318.20709229 C-922.24157618 306.72534472 -930.14005853 295.06428776 -937.93701172 283.30810547 C-939.05006992 281.63347803 -940.16335071 279.95899851 -941.27685547 278.28466797 C-943.44287958 275.02731515 -945.60713905 271.76880034 -947.77026367 268.50952148 C-949.70577024 265.59467371 -951.64644577 262.68342664 -953.59399414 259.77661133 C-958.46758606 252.50097131 -963.25265443 245.18505856 -967.87451172 237.74560547 C-968.50099609 236.73933105 -969.12748047 235.73305664 -969.77294922 234.69628906 C-985.73868055 208.9881551 -1001.13281486 182.99004456 -1015.87451172 156.55810547 C-1016.48182129 155.47134521 -1017.08913086 154.38458496 -1017.71484375 153.26489258 C-1033.14323686 125.45391722 -1033.14323686 125.45391722 -1028.90576172 109.52685547 C-1024.991449 99.59052318 -1018.78776866 93.6932727 -1010.81201172 86.93310547 C-1009.07447089 85.43006633 -1007.34096987 83.92243694 -1005.60742188 82.41479492 C-1002.34760532 79.58141509 -999.07956303 76.75755763 -995.81201172 73.93310547 C-994.87736084 73.12437988 -994.87736084 73.12437988 -993.92382812 72.29931641 C-986.66728325 66.02556889 -979.35709459 59.85975667 -971.81201172 53.93310547 C-970.81427734 53.13904297 -969.81654297 52.34498047 -968.78857422 51.52685547 C-954.90189633 40.49737397 -940.7595446 29.8275504 -926.12451172 19.80810547 C-925.22861328 19.19290039 -924.33271484 18.57769531 -923.40966797 17.94384766 C-910.77699638 9.38180864 -900.34472349 4.31453754 -884.81201172 5.93310547 C-881.1535088 6.80868508 -878.08257844 8.09113202 -874.81201172 9.93310547 C-874.18037109 10.27212891 -873.54873047 10.61115234 -872.89794922 10.96044922 C-863.71773244 16.64247767 -858.83179005 28.20894258 -853.87451172 37.37060547 C-852.56226695 39.76946339 -851.24323801 42.16452916 -849.92138672 44.55810547 C-849.58504715 45.16718246 -849.24870758 45.77625946 -848.9021759 46.40379333 C-843.3840879 56.3543456 -837.50576591 66.09646955 -831.65625 75.85449219 C-829.95082975 78.70137454 -828.25300267 81.55260607 -826.55810547 84.40576172 C-820.33348356 94.8647659 -813.92827038 105.19628958 -807.38476562 115.45849609 C-805.76173675 118.01220933 -804.1511173 120.57343025 -802.54248047 123.13623047 C-794.23202276 136.34090408 -785.56558689 149.27791857 -776.73193359 162.13769531 C-775.03055752 164.61490233 -773.33407854 167.09534358 -771.64013672 169.57763672 C-766.24409993 177.47436651 -760.75327434 185.29727007 -755.16162109 193.05664062 C-753.72248993 195.05757444 -752.29055451 197.06354462 -750.85888672 199.06982422 C-742.41266417 210.87343671 -733.65428587 222.42426833 -724.81201172 233.93310547 C-723.89645494 235.12827077 -722.98106554 236.32356431 -722.06591797 237.51904297 C-720.09783686 240.08498123 -718.12428223 242.64651615 -716.14599609 245.20458984 C-715.17140416 246.46742126 -714.19905762 247.73198646 -713.22802734 248.99755859 C-706.22562108 258.12384178 -699.10545478 267.07890192 -691.55419922 275.75732422 C-689.01291828 278.68147734 -686.56017184 281.6701349 -684.12451172 284.68310547 C-680.57861805 289.05317983 -676.86611689 293.2298279 -673.07373047 297.38623047 C-669.88941476 300.97202294 -666.90731326 304.71215689 -663.89794922 308.44482422 C-662.10010194 310.58944729 -660.26113261 312.5548163 -658.24951172 314.49560547 C-657.44513672 315.29998047 -656.64076172 316.10435547 -655.81201172 316.93310547 C-655.81201172 317.59310547 -655.81201172 318.25310547 -655.81201172 318.93310547 C-655.15201172 318.93310547 -654.49201172 318.93310547 -653.81201172 318.93310547 C-652.33154297 320.43701172 -652.33154297 320.43701172 -650.62451172 322.49560547 C-648.27921414 325.25849227 -645.90371767 327.89990304 -643.31201172 330.43310547 C-640.96901547 332.72925557 -638.77921364 335.08899003 -636.65185547 337.58544922 C-632.58889763 342.25661498 -628.26175386 346.63057721 -623.87451172 350.99560547 C-623.11460937 351.759375 -622.35470703 352.52314453 -621.57177734 353.31005859 C-617.39754371 357.47716288 -613.1375023 361.47459495 -608.66772461 365.32250977 C-605.87649359 367.74505299 -603.19477997 370.2800417 -600.49951172 372.80810547 C-595.65510644 377.3141691 -590.69025915 381.60060502 -585.52685547 385.74169922 C-582.74524734 387.98699729 -580.03165289 390.30080059 -577.31201172 392.62060547 C-565.4484016 402.52239464 -552.81380769 411.58943325 -539.81201172 419.93310547 C-538.65289285 420.70484345 -537.49405453 421.47700294 -536.33544922 422.24951172 C-502.70052466 444.33635813 -462.5104947 458.89912546 -422.12451172 450.87060547 C-411.00237792 448.50585473 -400.33721741 445.22385289 -389.81201172 440.93310547 C-388.77101318 440.51085693 -388.77101318 440.51085693 -387.70898438 440.08007812 C-356.91015177 427.26510168 -329.5984178 406.18525254 -304.57958984 384.45800781 C-302.78750257 382.91196125 -300.98189908 381.3832994 -299.17138672 379.85888672 C-292.69700835 374.39362676 -286.54374743 368.849304 -280.70263672 362.69873047 C-278.81201172 360.93310547 -278.81201172 360.93310547 -276.81201172 360.93310547 C-276.48201172 359.94310547 -276.15201172 358.95310547 -275.81201172 357.93310547 C-274.45654297 356.63623047 -274.45654297 356.63623047 -272.62451172 355.18310547 C-267.68755865 351.00978183 -263.40677324 346.3056428 -259.03369141 341.56079102 C-255.71500335 337.96405796 -252.36285319 334.43018825 -248.87451172 330.99560547 C-245.65015881 327.8127424 -242.63147592 324.52407989 -239.68310547 321.08544922 C-237.48121343 318.55258385 -235.21005346 316.08978024 -232.93701172 313.62060547 C-228.86661116 309.15787714 -225.01024263 304.57052547 -221.21826172 299.87060547 C-218.51421785 296.5695649 -215.73071647 293.34561902 -212.93701172 290.12060547 C-207.97579556 284.37413826 -203.24246911 278.48204285 -198.58544922 272.48779297 C-196.23200895 269.45955507 -193.83935111 266.46508454 -191.43334961 263.47851562 C-181.5240886 251.17479948 -171.95691115 238.63647178 -162.75317383 225.79614258 C-159.43823955 221.17248593 -156.0782704 216.58696124 -152.67944336 212.0246582 C-144.38960325 200.8844233 -136.55188602 189.46047615 -128.81201172 177.93310547 C-128.18190186 176.9953125 -128.18190186 176.9953125 -127.5390625 176.03857422 C-125.9103953 173.61114316 -124.28959537 171.1787082 -122.67529297 168.74169922 C-121.326098 166.70800702 -119.96819877 164.68008058 -118.60498047 162.65576172 C-108.29074286 147.32951216 -98.43762689 131.69956564 -88.81201172 115.93310547 C-87.920625 114.49837891 -87.920625 114.49837891 -87.01123047 113.03466797 C-80.9761603 103.31358186 -75.18135391 93.45295756 -69.37988281 83.59130859 C-67.98536042 81.22700467 -66.58283693 78.86779618 -65.17529297 76.51123047 C-58.9643588 66.08838295 -53.1354634 55.47588111 -47.36621094 44.80322266 C-45.79294513 41.89789548 -44.21211841 38.99681918 -42.62841797 36.09716797 C-42.10836182 35.14479248 -41.58830566 34.19241699 -41.05249023 33.21118164 C-40.0270653 31.3355616 -39.00023709 29.46070798 -37.97192383 27.58666992 C-35.84706823 23.70654479 -33.73721199 19.8269619 -31.74951172 15.87451172 C-25.2988797 3.18922867 -15.1195147 -5.73643681 0 0 Z " fill="#D5D60A" transform="translate(1287.81201171875,1.06689453125)"/>
<path d="M0 0 C0.76996307 0.00054382 1.53992615 0.00108765 2.33322144 0.00164795 C14.59561981 0.04139022 26.11536678 0.8904143 37.9375 4.375 C39.06913574 4.69645996 39.06913574 4.69645996 40.22363281 5.02441406 C79.01724946 16.26490948 110.98518439 42.10138535 130.75 77.25 C135.5131725 85.99536085 139.10696643 94.8403255 141.9375 104.375 C142.13424316 105.02307617 142.33098633 105.67115234 142.53369141 106.33886719 C146.74277244 120.3880492 148.3561388 134.27442334 148.3125 148.9375 C148.31168427 149.97973724 148.31168427 149.97973724 148.31085205 151.04302979 C148.26751576 163.16020446 147.16592664 174.66273988 143.9375 186.375 C143.61604004 187.54458252 143.61604004 187.54458252 143.28808594 188.73779297 C140.28990034 199.24889926 136.10124226 208.99548991 130.90039062 218.59667969 C130.02487104 220.21363828 129.17502418 221.84443156 128.328125 223.4765625 C110.47630741 256.26381163 77.20633643 280.32450954 41.91796875 291.0546875 C2.27660848 302.11402334 -39.0941236 296.59525974 -74.92578125 276.78515625 C-86.60461991 270.1095982 -96.41955587 261.68450899 -106.0625 252.375 C-107.04283203 251.48941406 -107.04283203 251.48941406 -108.04296875 250.5859375 C-118.17452561 241.20040977 -125.71426654 228.49067109 -132.0625 216.375 C-132.66835938 215.22902344 -133.27421875 214.08304688 -133.8984375 212.90234375 C-139.16064413 202.54166257 -142.32198593 191.63578529 -145.0625 180.375 C-145.24329102 179.64506836 -145.42408203 178.91513672 -145.61035156 178.16308594 C-153.78839913 143.58116313 -146.79678236 107.15262484 -130.0625 76.375 C-129.23105469 74.80492188 -129.23105469 74.80492188 -128.3828125 73.203125 C-123.79685516 64.9089055 -118.07965463 57.65745502 -112.0625 50.375 C-111.40894531 49.57707031 -110.75539063 48.77914062 -110.08203125 47.95703125 C-106.12460251 43.27513043 -101.811703 39.24413366 -97.0625 35.375 C-96.11503906 34.6015625 -95.16757812 33.828125 -94.19140625 33.03125 C-78.45928799 20.4411335 -61.2635002 11.28595203 -41.9375 5.5625 C-40.96047119 5.2722998 -39.98344238 4.98209961 -38.97680664 4.68310547 C-26.04183358 1.01951129 -13.37689197 -0.03566931 0 0 Z " fill="#D5D60A" transform="translate(845.0625,44.625)"/>
</svg>
