<svg width="205" height="61" viewBox="0 0 205 61" fill="none" xmlns="http://www.w3.org/2000/svg">
<g filter="url(#filter0_d_982_3668)">
<rect width="200" height="56" rx="24" fill="#E5C9A2"/>
<path d="M30.52 28.58L30.136 30.02H33.472L33.112 28.58C32.904 27.796 32.688 26.964 32.464 26.084C32.256 25.204 32.048 24.356 31.84 23.54H31.744C31.552 24.372 31.352 25.228 31.144 26.108C30.952 26.972 30.744 27.796 30.52 28.58ZM24.856 36.5L29.752 20.852H34L38.896 36.5H35.152L34.192 32.78H29.416L28.456 36.5H24.856ZM40.3178 40.916V24.596H43.1978L43.4378 25.772H43.5338C43.9978 25.356 44.5178 25.012 45.0938 24.74C45.6858 24.452 46.2938 24.308 46.9178 24.308C48.3578 24.308 49.4938 24.86 50.3258 25.964C51.1578 27.052 51.5738 28.516 51.5738 30.356C51.5738 31.716 51.3338 32.876 50.8538 33.836C50.3738 34.796 49.7498 35.532 48.9818 36.044C48.2298 36.54 47.4218 36.788 46.5578 36.788C46.0458 36.788 45.5498 36.684 45.0698 36.476C44.5898 36.252 44.1418 35.94 43.7258 35.54L43.8458 37.436V40.916H40.3178ZM45.7418 33.908C46.3498 33.908 46.8698 33.628 47.3018 33.068C47.7338 32.508 47.9498 31.62 47.9498 30.404C47.9498 28.26 47.2618 27.188 45.8858 27.188C45.1978 27.188 44.5178 27.548 43.8458 28.268V33.14C44.1658 33.428 44.4858 33.628 44.8058 33.74C45.1258 33.852 45.4378 33.908 45.7418 33.908ZM54.0756 40.916V24.596H56.9556L57.1956 25.772H57.2916C57.7556 25.356 58.2756 25.012 58.8516 24.74C59.4436 24.452 60.0516 24.308 60.6756 24.308C62.1156 24.308 63.2516 24.86 64.0836 25.964C64.9156 27.052 65.3316 28.516 65.3316 30.356C65.3316 31.716 65.0916 32.876 64.6116 33.836C64.1316 34.796 63.5076 35.532 62.7396 36.044C61.9876 36.54 61.1796 36.788 60.3156 36.788C59.8036 36.788 59.3076 36.684 58.8276 36.476C58.3476 36.252 57.8996 35.94 57.4836 35.54L57.6036 37.436V40.916H54.0756ZM59.4996 33.908C60.1076 33.908 60.6276 33.628 61.0596 33.068C61.4916 32.508 61.7076 31.62 61.7076 30.404C61.7076 28.26 61.0196 27.188 59.6436 27.188C58.9556 27.188 58.2756 27.548 57.6036 28.268V33.14C57.9236 33.428 58.2436 33.628 58.5636 33.74C58.8836 33.852 59.1956 33.908 59.4996 33.908ZM71.0734 36.788C69.8574 36.788 69.0094 36.428 68.5294 35.708C68.0654 34.972 67.8334 34.004 67.8334 32.804V19.676H71.3614V32.948C71.3614 33.316 71.4254 33.572 71.5534 33.716C71.6974 33.86 71.8414 33.932 71.9854 33.932C72.0654 33.932 72.1294 33.932 72.1774 33.932C72.2414 33.916 72.3214 33.9 72.4174 33.884L72.8494 36.5C72.6574 36.58 72.4094 36.644 72.1054 36.692C71.8174 36.756 71.4734 36.788 71.0734 36.788ZM76.0206 41.156C75.6686 41.156 75.3566 41.132 75.0846 41.084C74.8286 41.036 74.5806 40.98 74.3406 40.916L74.9646 38.228C75.0766 38.244 75.2046 38.268 75.3486 38.3C75.4926 38.348 75.6286 38.372 75.7566 38.372C76.3486 38.372 76.8046 38.228 77.1246 37.94C77.4446 37.652 77.6846 37.276 77.8446 36.812L78.0126 36.188L73.4286 24.596H76.9806L78.6846 29.708C78.8606 30.252 79.0206 30.804 79.1646 31.364C79.3086 31.924 79.4606 32.5 79.6206 33.092H79.7166C79.8446 32.532 79.9726 31.972 80.1006 31.412C80.2446 30.836 80.3886 30.268 80.5326 29.708L81.9726 24.596H85.3566L81.2286 36.62C80.8606 37.612 80.4526 38.444 80.0046 39.116C79.5566 39.804 79.0126 40.316 78.3726 40.652C77.7486 40.988 76.9646 41.156 76.0206 41.156ZM92.3089 36.5V20.852H95.9329L100.013 28.628L101.549 32.084H101.645C101.581 31.252 101.493 30.324 101.381 29.3C101.269 28.276 101.213 27.3 101.213 26.372V20.852H104.573V36.5H100.949L96.8689 28.7L95.3329 25.292H95.2369C95.3169 26.156 95.4049 27.084 95.5009 28.076C95.6129 29.068 95.6689 30.028 95.6689 30.956V36.5H92.3089ZM113.094 36.788C112.086 36.788 111.134 36.548 110.238 36.068C109.358 35.572 108.646 34.86 108.102 33.932C107.558 32.988 107.286 31.86 107.286 30.548C107.286 29.22 107.558 28.092 108.102 27.164C108.646 26.236 109.358 25.532 110.238 25.052C111.134 24.556 112.086 24.308 113.094 24.308C114.102 24.308 115.046 24.556 115.926 25.052C116.806 25.532 117.518 26.236 118.062 27.164C118.606 28.092 118.878 29.22 118.878 30.548C118.878 31.86 118.606 32.988 118.062 33.932C117.518 34.86 116.806 35.572 115.926 36.068C115.046 36.548 114.102 36.788 113.094 36.788ZM113.094 33.932C113.814 33.932 114.358 33.628 114.726 33.02C115.094 32.396 115.278 31.572 115.278 30.548C115.278 29.508 115.094 28.684 114.726 28.076C114.358 27.468 113.814 27.164 113.094 27.164C112.358 27.164 111.806 27.468 111.438 28.076C111.086 28.684 110.91 29.508 110.91 30.548C110.91 31.572 111.086 32.396 111.438 33.02C111.806 33.628 112.358 33.932 113.094 33.932ZM123.099 36.5L120.123 24.596H123.627L124.779 30.116C124.875 30.708 124.963 31.292 125.043 31.868C125.123 32.444 125.211 33.036 125.307 33.644H125.403C125.515 33.036 125.619 32.436 125.715 31.844C125.827 31.252 125.955 30.676 126.099 30.116L127.419 24.596H130.467L131.811 30.116C131.955 30.708 132.083 31.292 132.195 31.868C132.323 32.444 132.443 33.036 132.555 33.644H132.651C132.763 33.036 132.851 32.444 132.915 31.868C132.995 31.292 133.091 30.708 133.203 30.116L134.331 24.596H137.595L134.739 36.5H130.611L129.531 31.748C129.419 31.188 129.307 30.628 129.195 30.068C129.099 29.508 128.995 28.908 128.883 28.268H128.787C128.675 28.908 128.571 29.508 128.475 30.068C128.395 30.628 128.299 31.188 128.187 31.748L127.131 36.5H123.099Z" fill="#371511"/>
<g clip-path="url(#clip0_982_3668)">
<path d="M151.75 28H174.25" stroke="#622D25" stroke-width="1.5" stroke-linecap="round" stroke-linejoin="round"/>
<path d="M163.75 38.5L174.25 28L163.75 17.5" stroke="#622D25" stroke-width="1.5" stroke-linecap="round" stroke-linejoin="round"/>
</g>
</g>
<defs>
<filter id="filter0_d_982_3668" x="0" y="0" width="205" height="61" filterUnits="userSpaceOnUse" color-interpolation-filters="sRGB">
<feFlood flood-opacity="0" result="BackgroundImageFix"/>
<feColorMatrix in="SourceAlpha" type="matrix" values="0 0 0 0 0 0 0 0 0 0 0 0 0 0 0 0 0 0 127 0" result="hardAlpha"/>
<feOffset dx="5" dy="5"/>
<feColorMatrix type="matrix" values="0 0 0 0 0.466667 0 0 0 0 0.207843 0 0 0 0 0.160784 0 0 0 1 0"/>
<feBlend mode="normal" in2="BackgroundImageFix" result="effect1_dropShadow_982_3668"/>
<feBlend mode="normal" in="SourceGraphic" in2="effect1_dropShadow_982_3668" result="shape"/>
</filter>
<clipPath id="clip0_982_3668">
<rect width="24" height="24" fill="white" transform="translate(151 16)"/>
</clipPath>
</defs>
</svg>
