<svg width="25" height="25" viewBox="0 0 25 25" fill="none" xmlns="http://www.w3.org/2000/svg">
<mask id="path-1-inside-1_1190_2806" fill="white">
<path fill-rule="evenodd" clip-rule="evenodd" d="M14.0582 1.75522C14.3018 1.83183 14.5146 1.98416 14.6657 2.19005C14.8168 2.39594 14.8982 2.64465 14.8982 2.90002V8.90002H19.6982C19.9177 8.89992 20.133 8.96003 20.3207 9.07381C20.5084 9.18759 20.6614 9.35067 20.7628 9.54531C20.8643 9.73995 20.9104 9.9587 20.8962 10.1777C20.882 10.3968 20.808 10.6077 20.6822 10.7876L12.2822 22.7876C12.136 22.9971 11.9268 23.1544 11.685 23.2367C11.4432 23.3191 11.1815 23.3221 10.9378 23.2454C10.6942 23.1687 10.4814 23.0163 10.3304 22.8103C10.1794 22.6043 10.098 22.3554 10.0982 22.1V16.1H5.29819C5.07869 16.1001 4.86336 16.04 4.67565 15.9262C4.48794 15.8125 4.33503 15.6494 4.23356 15.4547C4.1321 15.2601 4.08596 15.0413 4.10018 14.8223C4.11439 14.6033 4.18842 14.3923 4.31419 14.2124L12.7142 2.21242C12.8606 2.00336 13.0699 1.84643 13.3116 1.76443C13.5532 1.68243 13.8148 1.67962 14.0582 1.75642"/>
</mask>
<path fill-rule="evenodd" clip-rule="evenodd" d="M14.0582 1.75522C14.3018 1.83183 14.5146 1.98416 14.6657 2.19005C14.8168 2.39594 14.8982 2.64465 14.8982 2.90002V8.90002H19.6982C19.9177 8.89992 20.133 8.96003 20.3207 9.07381C20.5084 9.18759 20.6614 9.35067 20.7628 9.54531C20.8643 9.73995 20.9104 9.9587 20.8962 10.1777C20.882 10.3968 20.808 10.6077 20.6822 10.7876L12.2822 22.7876C12.136 22.9971 11.9268 23.1544 11.685 23.2367C11.4432 23.3191 11.1815 23.3221 10.9378 23.2454C10.6942 23.1687 10.4814 23.0163 10.3304 22.8103C10.1794 22.6043 10.098 22.3554 10.0982 22.1V16.1H5.29819C5.07869 16.1001 4.86336 16.04 4.67565 15.9262C4.48794 15.8125 4.33503 15.6494 4.23356 15.4547C4.1321 15.2601 4.08596 15.0413 4.10018 14.8223C4.11439 14.6033 4.18842 14.3923 4.31419 14.2124L12.7142 2.21242C12.8606 2.00336 13.0699 1.84643 13.3116 1.76443C13.5532 1.68243 13.8148 1.67962 14.0582 1.75642" fill="#622D25"/>
<path d="M14.8982 2.90002L13.8982 2.89996V2.90002H14.8982ZM14.8982 8.90002H13.8982V9.90002H14.8982V8.90002ZM19.6982 8.90002V9.90002H19.6986L19.6982 8.90002ZM20.6822 10.7876L21.5014 11.3611L21.5017 11.3606L20.6822 10.7876ZM12.2822 22.7876L11.463 22.2142L11.4622 22.2153L12.2822 22.7876ZM10.0982 22.1L11.0982 22.1007V22.1H10.0982ZM10.0982 16.1H11.0982V15.1H10.0982V16.1ZM5.29819 16.1V15.1L5.29775 15.1L5.29819 16.1ZM4.31419 14.2124L3.49496 13.639L3.49463 13.6394L4.31419 14.2124ZM12.7142 2.21242L11.8951 1.63877L11.895 1.63896L12.7142 2.21242ZM13.7582 2.70916C13.7988 2.72193 13.8343 2.74732 13.8594 2.78163L15.4719 1.59846C15.195 1.221 14.8048 0.941734 14.3582 0.801281L13.7582 2.70916ZM13.8594 2.78163C13.8846 2.81594 13.8982 2.8574 13.8982 2.89996L15.8982 2.90008C15.8982 2.43191 15.7489 1.97593 15.4719 1.59846L13.8594 2.78163ZM13.8982 2.90002V8.90002H15.8982V2.90002H13.8982ZM14.8982 9.90002H19.6982V7.90002H14.8982V9.90002ZM19.6986 9.90002C19.7352 9.9 19.7711 9.91002 19.8024 9.92899L20.8391 8.21863C20.4949 8.01004 20.1002 7.89984 19.6977 7.90002L19.6986 9.90002ZM19.8024 9.92899C19.8337 9.94795 19.8592 9.97513 19.8761 10.0076L21.6496 9.08305C21.4635 8.72621 21.1832 8.42722 20.8391 8.21863L19.8024 9.92899ZM19.8761 10.0076C19.893 10.04 19.9007 10.0765 19.8983 10.113L21.8941 10.2425C21.9202 9.84093 21.8356 9.4399 21.6496 9.08305L19.8761 10.0076ZM19.8983 10.113C19.8959 10.1495 19.8836 10.1846 19.8626 10.2146L21.5017 11.3606C21.7323 11.0308 21.868 10.6441 21.8941 10.2425L19.8983 10.113ZM19.863 10.2142L11.463 22.2142L13.1014 23.3611L21.5014 11.3611L19.863 10.2142ZM11.4622 22.2153C11.4378 22.2502 11.403 22.2764 11.3627 22.2901L12.0073 24.1834C12.4506 24.0324 12.8342 23.744 13.1022 23.36L11.4622 22.2153ZM11.3627 22.2901C11.3224 22.3038 11.2787 22.3043 11.2381 22.2916L10.6375 24.1992C11.0842 24.3399 11.5641 24.3343 12.0073 24.1834L11.3627 22.2901ZM11.2381 22.2916C11.1975 22.2788 11.1621 22.2534 11.1369 22.219L9.52387 23.4015C9.80072 23.7791 10.1909 24.0586 10.6375 24.1992L11.2381 22.2916ZM11.1369 22.219C11.1117 22.1847 11.0982 22.1432 11.0982 22.1007L9.09819 22.0994C9.09789 22.5677 9.24702 23.0238 9.52387 23.4015L11.1369 22.219ZM11.0982 22.1V16.1H9.09819V22.1H11.0982ZM10.0982 15.1H5.29819V17.1H10.0982V15.1ZM5.29775 15.1C5.26116 15.1 5.22528 15.09 5.19399 15.0711L4.15731 16.7814C4.50145 16.99 4.89621 17.1002 5.29863 17.1L5.29775 15.1ZM5.19399 15.0711C5.1627 15.0521 5.13722 15.0249 5.12031 14.9925L3.34682 15.917C3.53284 16.2738 3.81317 16.5728 4.15731 16.7814L5.19399 15.0711ZM5.12031 14.9925C5.1034 14.96 5.09571 14.9236 5.09808 14.8871L3.10228 14.7575C3.07621 15.1591 3.16079 15.5601 3.34682 15.917L5.12031 14.9925ZM5.09808 14.8871C5.10045 14.8506 5.11278 14.8154 5.13375 14.7854L3.49463 13.6394C3.26405 13.9692 3.12834 14.356 3.10228 14.7575L5.09808 14.8871ZM5.13342 14.7859L13.5334 2.78588L11.895 1.63896L3.49496 13.639L5.13342 14.7859ZM13.5333 2.78607C13.5577 2.75123 13.5926 2.72508 13.6328 2.71141L12.9903 0.817453C12.5471 0.967792 12.1635 1.2555 11.8951 1.63877L13.5333 2.78607ZM13.6328 2.71141C13.6731 2.69774 13.7167 2.69727 13.7573 2.71007L14.3591 0.802765C13.9129 0.661968 13.4334 0.667113 12.9903 0.817453L13.6328 2.71141Z" fill="#622D25" mask="url(#path-1-inside-1_1190_2806)"/>
</svg>
