<svg width="25" height="25" viewBox="0 0 25 25" fill="none" xmlns="http://www.w3.org/2000/svg">
<path d="M12.5 6.5V21.5" stroke="#622D25" stroke-linecap="round" stroke-linejoin="round"/>
<path d="M9.58203 21.5H15.393" stroke="#622D25" stroke-linecap="round" stroke-linejoin="round"/>
<path d="M1.5 12.498L4.999 4.5L8.486 12.498" stroke="#622D25" stroke-linecap="round" stroke-linejoin="round"/>
<path d="M11.085 4.5H3.5" stroke="#622D25" stroke-linecap="round" stroke-linejoin="round"/>
<path d="M8.5 12.5C8.5 13.4283 8.13125 14.3185 7.47487 14.9749C6.8185 15.6313 5.92826 16 5 16C4.07174 16 3.1815 15.6313 2.52513 14.9749C1.86875 14.3185 1.5 13.4283 1.5 12.5H8.5Z" stroke="#622D25" stroke-linecap="round" stroke-linejoin="round"/>
<path d="M23.4977 12.498L19.9987 4.5L16.5117 12.498" stroke="#622D25" stroke-linecap="round" stroke-linejoin="round"/>
<path d="M13.9141 4.5H21.4991" stroke="#622D25" stroke-linecap="round" stroke-linejoin="round"/>
<path d="M16.5 12.5C16.5 13.4283 16.8687 14.3185 17.5251 14.9749C18.1815 15.6313 19.0717 16 20 16C20.9283 16 21.8185 15.6313 22.4749 14.9749C23.1313 14.3185 23.5 13.4283 23.5 12.5H16.5Z" stroke="#622D25" stroke-linecap="round" stroke-linejoin="round"/>
<path d="M11 5C11 5.39782 11.158 5.77936 11.4393 6.06066C11.7206 6.34196 12.1022 6.5 12.5 6.5C12.8978 6.5 13.2794 6.34196 13.5607 6.06066C13.842 5.77936 14 5.39782 14 5C14 4.60218 13.842 4.22064 13.5607 3.93934C13.2794 3.65804 12.8978 3.5 12.5 3.5C12.1022 3.5 11.7206 3.65804 11.4393 3.93934C11.158 4.22064 11 4.60218 11 5Z" stroke="#622D25" stroke-linecap="round" stroke-linejoin="round"/>
</svg>
