<svg width="108" height="108" viewBox="0 0 108 108" fill="none" xmlns="http://www.w3.org/2000/svg">
<path d="M75.84 1H32.16C23.8959 1 15.9702 4.28292 10.1266 10.1266C4.28292 15.9702 1 23.8959 1 32.16V75.84C1 93.0323 14.9677 107 32.16 107H75.84C84.1041 107 92.0298 103.717 97.8735 97.8735C103.717 92.0298 107 84.1041 107 75.84V32.16C107 14.9677 93.0323 1 75.84 1ZM18.5901 18.5901C21.9132 15.2669 26.4204 13.4 31.12 13.4H76.88C86.6757 13.4 94.6 21.3243 94.6 31.12V76.88C94.6 81.5796 92.7331 86.0868 89.4099 89.4099C86.0868 92.7331 81.5796 94.6 76.88 94.6H31.12C21.3243 94.6 13.4 86.6757 13.4 76.88V31.12C13.4 26.4204 15.2669 21.9132 18.5901 18.5901ZM86.6033 21.3967C85.1968 19.9902 83.2891 19.2 81.3 19.2C79.3109 19.2 77.4032 19.9902 75.9967 21.3967C74.5902 22.8032 73.8 24.7109 73.8 26.7C73.8 28.6891 74.5902 30.5968 75.9967 32.0033C77.4032 33.4098 79.3109 34.2 81.3 34.2C83.2891 34.2 85.1968 33.4098 86.6033 32.0033C88.0098 30.5968 88.8 28.6891 88.8 26.7C88.8 24.7109 88.0098 22.8032 86.6033 21.3967ZM73.0919 34.9081C68.0284 29.8446 61.1608 27 54 27C46.8392 27 39.9716 29.8446 34.9081 34.9081C29.8446 39.9716 27 46.8392 27 54C27 61.1608 29.8446 68.0284 34.9081 73.0919C39.9716 78.1554 46.8392 81 54 81C61.1608 81 68.0284 78.1554 73.0919 73.0919C78.1554 68.0284 81 61.1608 81 54C81 46.8392 78.1554 39.9716 73.0919 34.9081ZM43.6762 43.6762C46.4143 40.9382 50.1278 39.4 54 39.4C57.8722 39.4 61.5857 40.9382 64.3238 43.6762C67.0618 46.4143 68.6 50.1278 68.6 54C68.6 57.8722 67.0618 61.5857 64.3238 64.3238C61.5857 67.0618 57.8722 68.6 54 68.6C50.1278 68.6 46.4143 67.0618 43.6762 64.3238C40.9382 61.5857 39.4 57.8722 39.4 54C39.4 50.1278 40.9382 46.4143 43.6762 43.6762Z" fill="#F3E5D2" stroke="#622D25" stroke-width="2"/>
</svg>
