<svg width="106" height="106" viewBox="0 0 106 106" fill="none" xmlns="http://www.w3.org/2000/svg">
<path d="M65.5141 51.3306C60.742 51.3306 57.9338 54.5661 56.7343 57.55C56.2452 58.7312 56.1501 60.2835 56.1501 61.6636V86.3867H42.8545L42.858 85.5891C42.8628 84.4393 42.8695 82.7919 42.877 80.8015C42.892 76.8208 42.9099 71.4681 42.9218 65.9801C42.9431 56.226 42.9457 45.9985 42.8776 42.3274H56.1501V47.5465V47.55L55.2209 49.002H57.0481H57.1501H58.1501V48.1413C59.124 46.6723 60.4231 45.0096 62.3394 43.6837C64.3486 42.2936 67.0897 41.2373 70.952 41.2373C75.7656 41.2373 79.8826 42.8034 82.8041 45.9735C85.733 49.1516 87.5725 54.0644 87.5725 60.9688V86.3867H74.2661V62.7474C74.2661 59.5586 73.7019 56.7204 72.2942 54.6526C70.843 52.5207 68.5787 51.3306 65.5141 51.3306ZM9.49062 1C4.82468 1 1 4.69467 1 9.30575V96.6943C1 101.305 4.82468 105 9.49062 105H96.5094C101.175 105 105 101.305 105 96.6943V9.30575C105 4.69467 101.175 1 96.5094 1H9.49062ZM32.5116 42.3274V86.3867H19.2052V42.3274H32.5116ZM31.4751 22.125C32.7366 23.3455 33.4737 25.0708 33.5189 27.0898C33.5162 29.0406 32.7865 30.7599 31.499 31.9946C30.2099 33.231 28.3037 34.0353 25.8616 34.0353H25.7596C21.1497 34.0353 18.3 30.9276 18.3 27.0793C18.3 25.0845 19.0518 23.3631 20.3528 22.1362C21.6557 20.9076 23.566 20.1233 25.9636 20.1233C28.3589 20.1233 30.2133 20.9041 31.4751 22.125Z" fill="white" stroke="white" stroke-width="2"/>
</svg>
