<svg width="143" height="108" viewBox="0 0 143 108" fill="none" xmlns="http://www.w3.org/2000/svg">
<path d="M1.00001 94.4416C0.998465 95.9496 1.26973 97.4454 1.80073 98.8571L2.34221 100.297L3.43827 99.2177L44.6935 58.6022L45.5602 57.749L44.5555 57.0635L2.56358 28.415L1.00001 27.3483V29.2411V94.4416ZM1.00001 94.4416C1.00001 94.4415 1.00001 94.4413 1.00001 94.4411L2.00001 94.4421M1.00001 94.4416V94.4421H2.00001M2.00001 94.4421V30.4516L1.43643 30.0671L2.00001 29.2411H3.00001V29.9233L43.15 57.3152L43.2903 57.177L43.9919 57.8896L43.4283 58.7157L43.2656 58.6046L3.52384 97.7301C3.5704 97.872 3.62003 98.013 3.67269 98.153L2.73671 98.5051L2.03515 97.7925L2.39397 97.4392C2.13181 96.4633 1.99892 95.4557 2.00001 94.4421ZM52.4089 62.423L51.7298 61.9597L51.1439 62.5364L8.55433 104.455L7.46206 105.53L8.88601 106.097C10.3407 106.676 11.9254 107 13.5857 107H129.414C130.763 107 132.062 106.789 133.279 106.397L134.851 105.891L133.674 104.733L91.175 62.9038L90.5866 62.3248L89.9066 62.7928L71.5114 75.4529L52.4089 62.423ZM142 28.8736V26.9724L140.433 28.0496L97.7326 57.4123L96.7341 58.0989L97.5977 58.949L139.256 99.9527L140.274 100.955L140.867 99.655C141.592 98.066 142 96.3025 142 94.4421V28.8736ZM141.567 18.4448L142 18.1467V17.6208V13.5579C142 6.61733 136.358 1 129.414 1H13.5857C6.6343 1 1.00001 6.62504 1.00001 13.5579V18.016V18.5443L1.4364 18.842L70.9225 66.2522L71.4883 66.6382L72.0527 66.2501L141.567 18.4448Z" fill="#F3E5D2" stroke="#622D25" stroke-width="2"/>
</svg>