<svg width="24" height="23" viewBox="0 0 24 23" fill="none" xmlns="http://www.w3.org/2000/svg">
<path d="M11.2414 2.68333V1.15C11.2414 0.845001 11.363 0.552494 11.5794 0.336827C11.7958 0.12116 12.0893 0 12.3954 0C12.7015 0 12.995 0.12116 13.2114 0.336827C13.4278 0.552494 13.5494 0.845001 13.5494 1.15V2.68333C13.5494 2.98833 13.4278 3.28084 13.2114 3.49651C12.995 3.71217 12.7015 3.83333 12.3954 3.83333C12.0893 3.83333 11.7958 3.71217 11.5794 3.49651C11.363 3.28084 11.2414 2.98833 11.2414 2.68333ZM18.9347 11.5C18.9347 12.7889 18.5512 14.0488 17.8326 15.1205C17.1141 16.1921 16.0928 17.0274 14.8979 17.5206C13.703 18.0138 12.3881 18.1429 11.1196 17.8915C9.85115 17.64 8.68596 17.0194 7.77142 16.108C6.85688 15.1966 6.23408 14.0354 5.98176 12.7713C5.72944 11.5072 5.85894 10.1969 6.35388 9.00618C6.84882 7.81541 7.68698 6.79765 8.76236 6.08159C9.83774 5.36553 11.102 4.98333 12.3954 4.98333C14.1292 4.98511 15.7914 5.67225 17.0174 6.89398C18.2434 8.11571 18.9329 9.77222 18.9347 11.5ZM16.6267 11.5C16.6267 10.666 16.3785 9.85077 15.9136 9.15734C15.4487 8.46392 14.7878 7.92346 14.0147 7.60431C13.2415 7.28516 12.3907 7.20165 11.5699 7.36436C10.7491 7.52706 9.99517 7.92865 9.40341 8.51837C8.81165 9.10808 8.40866 9.85942 8.2454 10.6774C8.08213 11.4953 8.16592 12.3432 8.48618 13.1136C8.80644 13.8841 9.34878 14.5427 10.0446 15.006C10.7404 15.4694 11.5585 15.7167 12.3954 15.7167C13.5172 15.7154 14.5927 15.2707 15.386 14.4802C16.1792 13.6897 16.6254 12.6179 16.6267 11.5ZM5.03966 5.79696C5.147 5.90393 5.27444 5.98879 5.41469 6.04668C5.55494 6.10457 5.70526 6.13437 5.85707 6.13437C6.00887 6.13437 6.1592 6.10457 6.29945 6.04668C6.4397 5.98879 6.56713 5.90393 6.67448 5.79696C6.78182 5.68999 6.86697 5.56299 6.92507 5.42322C6.98316 5.28346 7.01306 5.13366 7.01306 4.98238C7.01306 4.83109 6.98316 4.68129 6.92507 4.54153C6.86697 4.40176 6.78182 4.27476 6.67448 4.16779L5.52049 3.01779C5.30369 2.80175 5.00966 2.68038 4.70307 2.68038C4.39648 2.68038 4.10245 2.80175 3.88566 3.01779C3.66887 3.23383 3.54708 3.52685 3.54708 3.83238C3.54708 4.1379 3.66887 4.43092 3.88566 4.64696L5.03966 5.79696ZM5.03966 17.2011L3.88566 18.3511C3.77832 18.4581 3.69317 18.5851 3.63507 18.7249C3.57698 18.8646 3.54708 19.0144 3.54708 19.1657C3.54708 19.317 3.57698 19.4668 3.63507 19.6066C3.69317 19.7463 3.77832 19.8733 3.88566 19.9803C4.10245 20.1963 4.39648 20.3177 4.70307 20.3177C4.85488 20.3177 5.0052 20.2879 5.14545 20.23C5.28571 20.1721 5.41314 20.0873 5.52049 19.9803L6.67448 18.8303C6.89127 18.6143 7.01306 18.3212 7.01306 18.0157C7.01306 17.7102 6.89127 17.4172 6.67448 17.2011C6.45769 16.9851 6.16366 16.8637 5.85707 16.8637C5.55048 16.8637 5.25645 16.9851 5.03966 17.2011ZM18.9347 6.13333C19.0863 6.13345 19.2364 6.10381 19.3765 6.04609C19.5166 5.98837 19.6439 5.90372 19.7511 5.79696L20.9051 4.64696C21.0125 4.53999 21.0976 4.41299 21.1557 4.27322C21.2138 4.13346 21.2437 3.98366 21.2437 3.83238C21.2437 3.68109 21.2138 3.53129 21.1557 3.39153C21.0976 3.25176 21.0125 3.12476 20.9051 3.01779C20.7978 2.91082 20.6704 2.82596 20.5301 2.76807C20.3899 2.71018 20.2395 2.68038 20.0877 2.68038C19.9359 2.68038 19.7856 2.71018 19.6453 2.76807C19.5051 2.82596 19.3777 2.91082 19.2703 3.01779L18.1163 4.16779C17.954 4.32864 17.8433 4.53397 17.7984 4.75768C17.7534 4.98138 17.7763 5.21335 17.864 5.42407C17.9518 5.63479 18.1004 5.81475 18.2911 5.94104C18.4817 6.06734 18.7058 6.13428 18.9347 6.13333ZM19.7511 17.203C19.5344 16.987 19.2403 16.8656 18.9337 16.8656C18.6271 16.8656 18.3331 16.987 18.1163 17.203C17.8995 17.4191 17.7777 17.7121 17.7777 18.0176C17.7777 18.3232 17.8995 18.6162 18.1163 18.8322L19.2703 19.9822C19.4871 20.1982 19.7811 20.3196 20.0877 20.3196C20.3943 20.3196 20.6883 20.1982 20.9051 19.9822C21.1219 19.7662 21.2437 19.4732 21.2437 19.1676C21.2437 18.8621 21.1219 18.5691 20.9051 18.353L19.7511 17.203ZM4.70211 11.5C4.70211 11.195 4.58053 10.9025 4.36412 10.6868C4.1477 10.4712 3.85418 10.35 3.54812 10.35H2.00946C1.7034 10.35 1.40988 10.4712 1.19347 10.6868C0.97705 10.9025 0.855469 11.195 0.855469 11.5C0.855469 11.805 0.97705 12.0975 1.19347 12.3132C1.40988 12.5288 1.7034 12.65 2.00946 12.65H3.54812C3.85418 12.65 4.1477 12.5288 4.36412 12.3132C4.58053 12.0975 4.70211 11.805 4.70211 11.5ZM12.3954 19.1667C12.0893 19.1667 11.7958 19.2878 11.5794 19.5035C11.363 19.7192 11.2414 20.0117 11.2414 20.3167V21.85C11.2414 22.155 11.363 22.4475 11.5794 22.6632C11.7958 22.8788 12.0893 23 12.3954 23C12.7015 23 12.995 22.8788 13.2114 22.6632C13.4278 22.4475 13.5494 22.155 13.5494 21.85V20.3167C13.5494 20.0117 13.4278 19.7192 13.2114 19.5035C12.995 19.2878 12.7015 19.1667 12.3954 19.1667ZM22.7813 10.35H21.2427C20.9366 10.35 20.6431 10.4712 20.4267 10.6868C20.2103 10.9025 20.0887 11.195 20.0887 11.5C20.0887 11.805 20.2103 12.0975 20.4267 12.3132C20.6431 12.5288 20.9366 12.65 21.2427 12.65H22.7813C23.0874 12.65 23.3809 12.5288 23.5973 12.3132C23.8137 12.0975 23.9353 11.805 23.9353 11.5C23.9353 11.195 23.8137 10.9025 23.5973 10.6868C23.3809 10.4712 23.0874 10.35 22.7813 10.35Z" fill="white"/>
</svg>
