<svg width="25" height="25" viewBox="0 0 25 25" fill="none" xmlns="http://www.w3.org/2000/svg">
<path d="M12.7483 18.4536V17.88V12.25C12.7483 12.1837 12.722 12.1201 12.6751 12.0732C12.6282 12.0264 12.5646 12 12.4983 12C12.432 12 12.3684 12.0264 12.3215 12.0732C12.2746 12.1201 12.2483 12.1837 12.2483 12.25V17.88V18.4536L11.6801 18.3753C10.5739 18.223 9.53214 17.7649 8.67214 17.0526C7.81214 16.3404 7.16801 15.4022 6.81224 14.3438C6.45648 13.2853 6.40319 12.1485 6.65839 11.0614C6.91359 9.97434 7.46715 8.98005 8.25675 8.19047L11.9673 4.47992C11.9674 4.47986 11.9674 4.47981 11.9675 4.47976L11.9677 4.47947L12.3213 4.83303C12.3445 4.80974 12.3721 4.79127 12.4025 4.77867C12.4329 4.76607 12.4654 4.75958 12.4983 4.75958C12.5312 4.75958 12.5637 4.76607 12.5941 4.77867C12.6245 4.79127 12.6521 4.80974 12.6753 4.83303L12.7483 18.4536ZM12.7483 18.4536L13.3165 18.3753C14.4227 18.223 15.4645 17.7649 16.3245 17.0526C17.1845 16.3404 17.8286 15.4022 18.1844 14.3438C18.5401 13.2853 18.5934 12.1485 18.3382 11.0614C18.083 9.97434 17.5294 8.98005 16.7399 8.19047L13.0293 4.47992L12.7483 18.4536ZM13.3827 4.12556L13.3827 4.12558L17.0937 7.83653C17.0937 7.83655 17.0937 7.83656 17.0937 7.83658C17.9604 8.70352 18.5643 9.7979 18.8355 10.9934C19.1067 12.1889 19.0343 13.4367 18.6266 14.5928C18.2189 15.7489 17.4926 16.7661 16.5314 17.527C15.5702 18.2879 14.4135 18.7614 13.1947 18.8929L12.7483 18.9411V19.39V21.749C12.7483 21.8153 12.722 21.8789 12.6751 21.9258C12.6282 21.9727 12.5646 21.999 12.4983 21.999C12.432 21.999 12.3684 21.9727 12.3215 21.9258C12.2746 21.8789 12.2483 21.8153 12.2483 21.749V19.39V18.9411L11.8019 18.8929C10.5832 18.7614 9.42655 18.288 8.46544 17.5272C7.50432 16.7665 6.77794 15.7494 6.37016 14.5934C5.96239 13.4375 5.88983 12.1898 6.16087 10.9943C6.4319 9.79898 7.03543 8.70464 7.9018 7.83763C7.90186 7.83757 7.90191 7.83752 7.90197 7.83746L11.6148 4.12563L11.6149 4.12556C11.7309 4.00947 11.8687 3.91739 12.0204 3.85456C12.1721 3.79174 12.3346 3.7594 12.4988 3.7594C12.663 3.7594 12.8255 3.79174 12.9772 3.85456C13.1288 3.91739 13.2666 4.00947 13.3827 4.12556Z" fill="black" stroke="#622D25"/>
</svg>
