<svg width="24" height="25" viewBox="0 0 24 25" fill="none" xmlns="http://www.w3.org/2000/svg">
<path d="M11.9996 8.6875C11.2456 8.68756 10.5086 8.91115 9.88175 9.33002C9.25479 9.74894 8.76613 10.3444 8.47757 11.041C8.18901 11.7377 8.11351 12.5042 8.26062 13.2438C8.40773 13.9833 8.77083 14.6627 9.30402 15.1958C9.83721 15.729 10.5165 16.0921 11.2561 16.2392C11.9956 16.3863 12.7622 16.3109 13.4588 16.0223C14.1555 15.7337 14.7509 15.2451 15.1698 14.6181C15.5886 13.9913 15.8122 13.2545 15.8124 12.5007L11.9996 8.6875ZM11.9996 8.6875C13.0104 8.68891 13.9793 9.09107 14.6941 9.8058C15.4089 10.5206 15.811 11.4897 15.8124 12.5006L11.9996 8.6875ZM22.5553 12.472L22.5553 12.472L22.5568 12.4755C22.5604 12.4835 22.5622 12.4922 22.5622 12.5009C22.5622 12.5097 22.5604 12.5184 22.5568 12.5264L22.5568 12.5263L22.5535 12.5341C22.5537 12.5336 22.5417 12.5611 22.5155 12.6154C22.4902 12.6681 22.453 12.7432 22.4034 12.8377C22.3042 13.0266 22.1559 13.2922 21.9554 13.6092C21.554 14.2438 20.9458 15.0804 20.1063 15.9199C18.5509 17.4735 15.8938 19.3125 11.9999 19.3125C8.10573 19.3125 5.44864 17.4733 3.89321 15.9197C2.21109 14.2375 1.46152 12.5685 1.44351 12.5277L1.4429 12.5264C1.43934 12.5184 1.4375 12.5097 1.4375 12.5009C1.4375 12.4922 1.43934 12.4835 1.4429 12.4755L1.44301 12.4756L1.44714 12.4657C1.44705 12.4659 1.44716 12.4657 1.44747 12.465C1.44962 12.4602 1.46136 12.4337 1.48433 12.3858C1.50959 12.3332 1.54681 12.2581 1.59639 12.1635C1.69558 11.9745 1.84383 11.7089 2.04433 11.3918C2.4457 10.7571 3.05379 9.92072 3.89321 9.08126C5.44871 7.52756 8.10581 5.6875 11.9999 5.6875C15.8937 5.6875 18.5508 7.5274 20.1063 9.08105C20.9457 9.92049 21.5539 10.7576 21.9553 11.3928C22.1558 11.71 22.3041 11.9758 22.4034 12.1649C22.453 12.2594 22.4903 12.3345 22.5157 12.3872C22.5284 12.4136 22.538 12.4342 22.5448 12.4488L22.5525 12.4659C22.5544 12.4701 22.5553 12.4721 22.5553 12.472ZM0.9375 12.5009C0.9375 12.5798 0.954062 12.6577 0.986113 12.7297L3.53986 8.7275C1.79799 10.4694 1.01799 12.1963 0.986113 12.2722C0.954062 12.3442 0.9375 12.4221 0.9375 12.5009ZM4.01146 15.8612L4.01163 15.8614C6.22863 18.0627 8.92325 19.1875 11.9999 19.1875C18.5822 19.1875 21.7034 13.9055 22.316 12.7313L22.4381 12.4972L22.3137 12.2643C21.6983 11.1128 20.9145 10.0597 19.9881 9.13962C17.7711 6.93728 15.0765 5.8125 11.9999 5.8125C8.92324 5.8125 6.2286 6.93728 4.01158 9.13962C3.08524 10.0597 2.30143 11.1128 1.68607 12.2643L1.56013 12.5L1.68608 12.7357C2.30157 13.8873 3.08531 14.9407 4.01146 15.8612ZM9.9512 15.566C10.5576 15.9712 11.2705 16.1875 11.9999 16.1875C12.9778 16.1875 13.9158 15.799 14.6073 15.1075C15.2989 14.4159 15.6874 13.478 15.6874 12.5C15.6874 11.7707 15.4711 11.0577 15.0659 10.4513C14.6607 9.84493 14.0848 9.37229 13.411 9.09319C12.7372 8.8141 11.9958 8.74107 11.2805 8.88335C10.5652 9.02564 9.90811 9.37684 9.39241 9.89254C8.8767 10.4082 8.5255 11.0653 8.38322 11.7806C8.24093 12.4959 8.31396 13.2373 8.59306 13.9111C8.87216 14.5849 9.34479 15.1609 9.9512 15.566Z" fill="black" stroke="#622D25"/>
</svg>
